<?xml version="1.0" standalone="no"?>
<!DOCTYPE svg PUBLIC "-//W3C//DTD SVG 20010904//EN"
 "http://www.w3.org/TR/2001/REC-SVG-20010904/DTD/svg10.dtd">
<svg version="1.0" xmlns="http://www.w3.org/2000/svg"
 width="512.000000pt" height="512.000000pt" viewBox="0 0 512.000000 512.000000"
 preserveAspectRatio="xMidYMid meet">
<metadata>
Created by potrace 1.15, written by Peter Selinger 2001-2017
</metadata>
<g transform="translate(0.000000,512.000000) scale(0.100000,-0.100000)"
fill="#000000" stroke="none">
<path d="M2450 5035 c-8 -2 -76 -9 -150 -15 -74 -7 -144 -15 -155 -20 -36 -14
-169 -40 -204 -40 -19 0 -42 -6 -50 -13 -27 -23 -194 -77 -237 -77 -31 0 -46
-6 -65 -26 -13 -14 -55 -42 -94 -61 -38 -20 -100 -53 -137 -74 -44 -26 -79
-39 -103 -39 -34 0 -50 -12 -168 -122 -166 -157 -358 -349 -514 -515 -111
-118 -123 -134 -123 -168 0 -24 -13 -59 -39 -103 -21 -37 -54 -98 -74 -137
-19 -38 -47 -81 -61 -94 -20 -19 -26 -34 -26 -65 0 -43 -54 -210 -77 -237 -7
-8 -13 -31 -13 -50 0 -35 -26 -168 -40 -204 -14 -34 -35 -283 -35 -405 0 -154
16 -374 27 -381 5 -3 12 -40 15 -82 3 -43 9 -77 13 -77 11 0 30 -81 30 -124 0
-20 4 -36 9 -36 12 0 41 -86 41 -122 0 -15 4 -28 10 -28 15 0 40 -67 40 -106
0 -23 5 -34 15 -34 16 0 55 -81 55 -116 0 -13 6 -24 13 -24 15 0 57 -72 57
-99 0 -12 6 -21 13 -21 17 0 57 -73 57 -104 0 -19 5 -26 19 -26 22 0 61 -57
61 -89 0 -13 6 -21 18 -21 22 0 72 -62 72 -89 0 -14 7 -21 19 -21 23 0 71 -61
71 -89 0 -15 6 -21 22 -21 29 0 78 -48 78 -77 0 -17 6 -23 23 -23 26 -1 87
-53 87 -75 0 -8 7 -15 17 -15 25 0 83 -49 83 -71 0 -14 7 -19 26 -19 29 0 94
-46 94 -66 0 -8 10 -14 23 -14 28 0 97 -46 97 -65 0 -9 10 -15 26 -15 33 0
104 -39 104 -57 0 -7 11 -13 25 -13 30 0 105 -36 105 -50 0 -6 11 -10 24 -10
31 0 116 -36 116 -50 0 -5 13 -10 28 -10 36 0 122 -29 122 -41 0 -5 14 -9 31
-9 34 0 121 -20 129 -30 5 -7 90 -21 270 -46 185 -25 591 -22 655 6 29 13 172
40 209 40 18 0 36 4 42 9 16 17 195 71 233 71 26 0 44 7 56 21 29 31 280 149
318 149 26 0 43 10 82 51 28 28 102 89 165 137 148 111 391 354 502 502 48 63
109 137 137 165 41 39 51 56 51 82 0 38 118 289 149 318 14 12 21 30 21 56 0
38 54 217 71 233 5 6 9 24 9 42 0 37 27 180 40 209 28 64 31 470 6 655 -25
180 -39 265 -46 270 -10 8 -30 95 -30 129 0 17 -4 31 -9 31 -13 0 -41 81 -41
118 0 19 -5 32 -13 32 -13 0 -47 84 -47 119 0 11 -4 21 -10 21 -14 0 -50 75
-50 105 0 14 -6 25 -13 25 -18 0 -57 71 -57 104 0 16 -6 26 -15 26 -19 0 -65
69 -65 97 0 13 -6 23 -14 23 -20 0 -66 65 -66 94 0 19 -5 26 -19 26 -22 0 -71
58 -71 83 0 10 -7 17 -15 17 -22 0 -74 61 -75 88 0 16 -6 22 -23 22 -29 0 -77
49 -77 78 0 16 -6 22 -21 22 -28 0 -89 48 -89 71 0 12 -7 19 -21 19 -27 0 -89
50 -89 73 0 11 -8 17 -21 17 -32 0 -89 39 -89 61 0 14 -7 19 -26 19 -31 0
-104 40 -104 58 0 6 -9 12 -21 12 -27 0 -99 42 -99 58 0 6 -11 12 -24 12 -35
0 -116 39 -116 55 0 10 -11 15 -34 15 -39 0 -106 25 -106 40 0 6 -13 10 -28
10 -36 0 -122 29 -122 41 0 5 -16 9 -36 9 -43 0 -124 19 -124 30 0 4 -34 10
-77 13 -42 3 -79 10 -82 15 -9 13 -439 38 -481 27z m-30 -275 c0 -13 7 -20 20
-20 20 0 20 -7 20 -413 l0 -413 -43 -42 -43 -42 -305 2 -304 3 -3 28 c-2 15
-9 27 -18 27 -11 0 -14 15 -14 61 0 84 55 217 116 279 37 39 44 52 44 86 0 81
184 317 324 415 66 47 72 49 138 49 61 0 68 -2 68 -20z m400 10 c0 -5 14 -10
32 -10 38 0 98 -43 98 -71 0 -13 7 -19 22 -19 29 0 78 -48 78 -77 0 -16 6 -23
19 -23 26 0 71 -60 71 -93 0 -20 5 -27 19 -27 23 0 61 -60 61 -96 0 -14 6 -24
15 -24 18 0 55 -70 55 -105 0 -14 6 -25 13 -25 16 0 47 -77 47 -118 0 -21 5
-32 14 -32 20 0 26 -23 26 -101 0 -57 -4 -73 -21 -90 -20 -20 -27 -21 -351
-17 -313 3 -330 4 -344 22 -12 16 -14 94 -14 450 0 499 -7 466 97 466 35 0 63
-4 63 -10z m670 -130 c0 -5 16 -10 35 -10 41 0 105 -28 105 -47 0 -7 11 -13
26 -13 35 0 104 -41 104 -62 0 -13 8 -18 26 -18 37 0 94 -37 94 -61 0 -14 7
-19 26 -19 31 0 94 -49 94 -72 0 -12 8 -18 23 -18 26 -1 87 -53 87 -75 0 -8 8
-15 17 -15 23 0 83 -59 83 -82 0 -10 7 -18 18 -18 22 0 72 -62 72 -89 0 -14 6
-21 20 -21 18 0 20 -7 20 -70 0 -116 20 -110 -367 -110 -368 0 -363 -1 -363
72 0 21 -4 38 -10 38 -15 0 -40 67 -40 106 0 22 -5 34 -14 34 -16 0 -46 74
-46 113 0 15 -6 27 -13 27 -16 0 -57 82 -57 115 0 15 -6 25 -15 25 -26 0 -54
73 -61 159 -9 104 3 121 83 121 29 0 53 -4 53 -10z m-1726 -20 c5 -6 12 -36
14 -69 5 -73 -19 -129 -90 -207 -39 -42 -48 -59 -48 -88 0 -21 -18 -79 -40
-131 -22 -52 -40 -98 -40 -103 0 -5 -11 -19 -25 -32 -19 -18 -25 -33 -25 -68
0 -85 12 -82 -358 -82 -375 0 -362 -3 -362 84 l0 51 262 261 c145 143 277 269
293 279 17 11 75 43 130 73 l100 53 90 -6 c50 -3 94 -10 99 -15z m-384 -1000
c16 -16 20 -33 20 -88 0 -44 -5 -75 -15 -88 -8 -11 -14 -41 -15 -72 0 -29 -6
-85 -14 -125 -8 -40 -19 -135 -25 -212 -25 -303 -16 -266 -75 -324 l-53 -52
-442 3 -443 3 -20 24 c-16 21 -19 36 -15 95 11 168 40 328 63 347 8 7 14 30
14 58 0 65 52 206 89 245 23 24 31 41 31 69 0 38 20 87 48 120 14 16 47 17
424 17 395 0 409 -1 428 -20z m1051 1 l24 -19 3 -442 3 -443 -32 -33 -33 -34
-413 0 c-352 0 -413 2 -413 14 0 9 -12 16 -27 18 -27 3 -28 5 -31 68 -4 103
23 446 47 583 6 34 18 105 27 157 13 74 22 101 42 123 l26 27 377 0 c356 0
378 -1 400 -19z m1049 -1 c0 -13 7 -20 18 -20 15 0 21 -13 31 -72 7 -40 16
-86 21 -103 9 -30 25 -135 41 -280 5 -44 12 -161 15 -260 6 -177 6 -180 -16
-200 -21 -19 -36 -20 -455 -20 -412 0 -434 1 -454 19 -21 19 -21 24 -21 469 0
405 2 452 17 469 15 17 41 18 410 18 386 0 393 0 393 -20z m1120 0 c12 -12 20
-33 20 -55 0 -22 5 -35 13 -35 19 0 47 -64 47 -105 0 -22 5 -35 13 -35 15 0
47 -83 47 -122 0 -16 4 -28 9 -28 11 0 31 -79 31 -124 0 -20 4 -36 9 -36 5 0
15 -33 21 -72 7 -40 16 -97 21 -127 16 -95 12 -165 -12 -195 l-20 -26 -473 0
c-363 0 -476 3 -488 13 -16 12 -21 38 -38 232 -14 161 -39 364 -50 413 -17 74
-34 236 -27 264 15 60 1 58 448 58 396 0 410 -1 429 -20z m-3312 -1195 c2 -16
8 -32 12 -35 5 -3 15 -91 24 -195 8 -105 22 -228 31 -275 8 -47 18 -120 21
-162 4 -43 11 -78 15 -78 5 0 9 -37 9 -82 0 -128 32 -118 -395 -118 -199 0
-390 3 -424 6 -59 7 -63 9 -82 45 -10 21 -19 50 -19 64 0 14 -4 25 -10 25 -15
0 -40 67 -40 106 0 21 -5 34 -13 34 -15 0 -47 92 -47 133 0 14 -4 27 -9 29 -5
2 -15 32 -21 68 -6 36 -16 79 -21 97 -14 45 -29 186 -29 270 0 111 -39 104
520 101 l475 -3 3 -30z m1150 19 l22 -15 0 -453 c0 -417 -1 -455 -17 -475 -18
-21 -20 -21 -418 -19 l-400 3 -3 34 c-2 19 -10 40 -19 46 -10 7 -17 35 -20 81
-3 38 -10 72 -15 75 -6 4 -12 45 -15 93 -3 47 -9 86 -13 86 -11 0 -30 243 -30
389 0 111 3 138 17 153 15 17 42 18 452 18 379 0 439 -2 459 -16z m1154 -1
c16 -14 18 -33 18 -137 0 -132 -35 -475 -51 -490 -5 -6 -9 -30 -9 -55 0 -24
-5 -74 -11 -110 -10 -59 -16 -71 -62 -118 l-51 -53 -357 0 c-345 0 -357 1
-383 21 l-26 20 0 451 c0 406 2 453 17 470 15 17 43 18 456 18 396 0 442 -2
459 -17z m1230 0 c15 -13 18 -32 18 -112 0 -101 -23 -258 -40 -275 -5 -5 -10
-26 -10 -46 0 -57 -49 -212 -76 -241 -17 -17 -24 -37 -24 -63 0 -47 -70 -200
-98 -215 -27 -15 -792 -15 -792 -1 0 6 -16 10 -35 10 -29 0 -36 4 -41 26 -8
32 1 158 15 199 23 67 54 319 69 552 7 117 9 124 37 153 l29 30 465 0 c418 0
466 -2 483 -17z m-3344 -1175 c7 -7 12 -25 12 -40 0 -16 5 -28 13 -28 14 0 47
-91 47 -128 0 -12 4 -22 10 -22 15 0 40 -67 40 -106 0 -23 5 -34 15 -34 18 0
55 -70 55 -105 0 -14 6 -25 13 -25 15 0 57 -81 57 -110 0 -11 7 -20 15 -20 25
0 21 -120 -6 -154 -19 -24 -27 -26 -90 -26 -55 0 -69 3 -69 15 0 10 -10 15
-30 15 -42 0 -100 30 -100 52 0 14 -8 18 -31 18 -37 0 -99 35 -99 56 0 8 -10
14 -23 14 -28 0 -97 46 -97 65 0 8 -9 15 -21 15 -27 0 -89 50 -89 73 0 11 -8
17 -22 17 -27 0 -88 57 -88 82 0 12 -8 18 -23 18 -29 0 -77 49 -77 78 0 14 -6
22 -17 22 -9 0 -30 12 -45 27 -27 26 -28 30 -28 129 l0 103 48 4 c26 2 175 4
333 5 210 2 288 -1 297 -10z m962 -8 c19 -19 20 -33 20 -452 0 -387 -2 -433
-17 -450 -13 -14 -31 -18 -95 -18 -71 0 -78 2 -78 20 0 16 -7 20 -32 20 -39 1
-88 39 -88 70 0 14 -6 20 -23 20 -29 0 -77 49 -77 78 0 15 -6 22 -19 22 -22 0
-71 67 -71 98 0 12 -6 22 -14 22 -21 0 -56 62 -56 99 0 23 -4 31 -18 31 -22 0
-52 58 -52 100 0 19 -5 30 -14 30 -17 0 -46 69 -46 110 0 20 -5 30 -15 30 -12
0 -15 15 -15 75 0 122 -22 115 365 115 312 0 326 -1 345 -20z m880 10 c0 -5
13 -10 29 -10 35 0 41 -13 41 -96 0 -73 -31 -154 -74 -193 -20 -19 -26 -34
-26 -65 0 -32 -13 -65 -61 -146 -104 -180 -214 -309 -335 -388 -46 -31 -53
-33 -129 -30 l-80 3 -3 38 c-2 20 -7 37 -13 37 -5 0 -9 161 -9 410 0 397 1
411 20 430 19 19 33 20 330 20 200 0 310 -4 310 -10z m974 4 c10 -4 16 -18 16
-35 0 -16 5 -29 10 -29 6 0 10 -25 10 -55 0 -46 -5 -60 -32 -92 -61 -73 -184
-195 -259 -259 -66 -55 -83 -64 -116 -64 -35 0 -46 -7 -118 -81 -62 -62 -102
-92 -181 -135 -93 -50 -106 -54 -168 -54 -59 0 -66 2 -66 19 0 13 -8 21 -22
23 -21 3 -23 8 -22 73 0 65 4 76 51 159 29 49 65 103 82 120 23 24 31 41 31
69 0 20 18 83 41 139 33 83 50 113 92 156 l51 52 292 0 c161 0 299 -3 308 -6z"/>
</g>
</svg>
